<svg xmlns="http://www.w3.org/2000/svg" viewBox="0 0 100 100">
  <!-- Чёрный скруглённый фон -->
  <rect x="0" y="0" width="100" height="100" rx="18" ry="18" fill="#000000"/>
  <defs>
    <mask id="heartMask">
      <rect width="100" height="100" fill="black"/>
      <!-- Сердце: те же отступы (10%) что в PNG -->
      <path d="M50.000,29.149 L50.000,29.148 L50.000,29.143 L50.000,29.135 L50.000,29.124 L50.001,29.110 L50.001,29.093 L50.002,29.073 L50.003,29.050 L50.004,29.023 L50.006,28.994 L50.008,28.961 L50.010,28.926 L50.013,28.887 L50.016,28.846 L50.019,28.801 L50.023,28.753 L50.028,28.703 L50.033,28.649 L50.039,28.593 L50.046,28.533 L50.053,28.471 L50.061,28.405 L50.070,28.337 L50.079,28.266 L50.089,28.192 L50.100,28.116 L50.112,28.036 L50.125,27.954 L50.139,27.869 L50.154,27.782 L50.169,27.691 L50.186,27.598 L50.204,27.503 L50.223,27.405 L50.243,27.304 L50.264,27.201 L50.286,27.095 L50.310,26.987 L50.334,26.877 L50.360,26.764 L50.388,26.649 L50.416,26.531 L50.446,26.411 L50.477,26.289 L50.510,26.165 L50.544,26.039 L50.580,25.910 L50.617,25.780 L50.655,25.647 L50.695,25.513 L50.737,25.376 L50.780,25.238 L50.824,25.098 L50.871,24.956 L50.919,24.812 L50.968,24.667 L51.019,24.520 L51.072,24.371 L51.127,24.221 L51.183,24.069 L51.241,23.915 L51.301,23.761 L51.363,23.605 L51.426,23.447 L51.491,23.289 L51.558,23.129 L51.627,22.968 L51.698,22.806 L51.771,22.643 L51.845,22.478 L51.922,22.313 L52.000,22.147 L52.081,21.980 L52.163,21.813 L52.247,21.644 L52.333,21.475 L52.421,21.305 L52.512,21.135 L52.604,20.964 L52.698,20.793 L52.794,20.621 L52.892,20.449 L52.993,20.277 L53.095,20.105 L53.199,19.932 L53.305,19.759 L53.414,19.586 L53.524,19.413 L53.637,19.240 L53.752,19.067 L53.868,18.895 L53.987,18.722 L54.108,18.550 L54.231,18.378 L54.356,18.207 L54.483,18.036 L54.612,17.865 L54.743,17.695 L54.876,17.526 L55.011,17.357 L55.149,17.189 L55.288,17.022 L55.430,16.855 L55.573,16.689 L55.719,16.525 L55.866,16.361 L56.016,16.198 L56.167,16.037 L56.321,15.876 L56.477,15.717 L56.634,15.559 L56.794,15.402 L56.955,15.247 L57.119,15.093 L57.284,14.940 L57.452,14.789 L57.621,14.640 L57.792,14.492 L57.966,14.346 L58.141,14.201 L58.317,14.058 L58.496,13.917 L58.677,13.778 L58.859,13.641 L59.043,13.505 L59.229,13.372 L59.417,13.240 L59.606,13.111 L59.798,12.984 L59.991,12.859 L60.185,12.736 L60.381,12.615 L60.579,12.496 L60.779,12.380 L60.980,12.267 L61.182,12.155 L61.387,12.046 L61.592,11.940 L61.800,11.836 L62.008,11.734 L62.218,11.635 L62.430,11.539 L62.643,11.445 L62.857,11.355 L63.073,11.266 L63.290,11.181 L63.508,11.098 L63.727,11.018 L63.948,10.941 L64.170,10.867 L64.393,10.795 L64.617,10.727 L64.842,10.661 L65.069,10.599 L65.296,10.539 L65.525,10.482 L65.754,10.429 L65.984,10.378 L66.215,10.331 L66.448,10.287 L66.680,10.245 L66.914,10.207 L67.149,10.172 L67.384,10.141 L67.620,10.112 L67.856,10.087 L68.093,10.065 L68.331,10.046 L68.570,10.030 L68.808,10.018 L69.048,10.008 L69.287,10.003 L69.528,10.000 L69.768,10.001 L70.009,10.005 L70.250,10.012 L70.491,10.023 L70.733,10.037 L70.975,10.054 L71.217,10.075 L71.459,10.099 L71.701,10.126 L71.943,10.157 L72.185,10.190 L72.427,10.228 L72.669,10.268 L72.910,10.312 L73.152,10.360 L73.393,10.410 L73.634,10.464 L73.875,10.522 L74.115,10.582 L74.355,10.646 L74.594,10.713 L74.833,10.784 L75.072,10.858 L75.310,10.935 L75.547,11.015 L75.784,11.098 L76.020,11.185 L76.255,11.275 L76.490,11.369 L76.724,11.465 L76.957,11.565 L77.189,11.667 L77.420,11.773 L77.650,11.882 L77.879,11.995 L78.107,12.110 L78.334,12.228 L78.560,12.350 L78.785,12.474 L79.008,12.602 L79.231,12.732 L79.452,12.866 L79.671,13.002 L79.889,13.141 L80.106,13.284 L80.322,13.429 L80.536,13.577 L80.748,13.728 L80.959,13.882 L81.168,14.038 L81.376,14.197 L81.582,14.359 L81.786,14.524 L81.988,14.691 L82.189,14.862 L82.388,15.034 L82.585,15.209 L82.780,15.387 L82.973,15.568 L83.164,15.751 L83.354,15.936 L83.541,16.124 L83.726,16.314 L83.909,16.507 L84.090,16.702 L84.268,16.899 L84.445,17.098 L84.619,17.300 L84.791,17.504 L84.960,17.711 L85.128,17.919 L85.293,18.130 L85.455,18.342 L85.615,18.557 L85.773,18.774 L85.928,18.992 L86.081,19.213 L86.231,19.436 L86.378,19.660 L86.523,19.887 L86.665,20.115 L86.805,20.345 L86.942,20.576 L87.076,20.810 L87.207,21.045 L87.336,21.282 L87.462,21.520 L87.585,21.760 L87.705,22.001 L87.822,22.244 L87.937,22.489 L88.049,22.735 L88.157,22.982 L88.263,23.231 L88.366,23.481 L88.466,23.732 L88.562,23.984 L88.656,24.238 L88.747,24.493 L88.835,24.749 L88.919,25.006 L89.001,25.265 L89.079,25.524 L89.154,25.785 L89.227,26.046 L89.296,26.308 L89.361,26.572 L89.424,26.836 L89.484,27.101 L89.540,27.367 L89.593,27.634 L89.643,27.901 L89.690,28.169 L89.733,28.438 L89.773,28.708 L89.810,28.978 L89.844,29.249 L89.874,29.520 L89.901,29.792 L89.925,30.065 L89.946,30.338 L89.963,30.611 L89.977,30.885 L89.988,31.159 L89.995,31.434 L89.999,31.709 L90.000,31.984 L89.998,32.260 L89.992,32.536 L89.983,32.812 L89.970,33.088 L89.955,33.365 L89.936,33.641 L89.914,33.918 L89.888,34.195 L89.859,34.472 L89.827,34.749 L89.792,35.027 L89.753,35.304 L89.712,35.581 L89.667,35.858 L89.618,36.135 L89.567,36.413 L89.512,36.690 L89.454,36.967 L89.393,37.243 L89.329,37.520 L89.261,37.797 L89.191,38.073 L89.117,38.349 L89.040,38.625 L88.960,38.901 L88.877,39.176 L88.791,39.452 L88.702,39.727 L88.610,40.001 L88.514,40.276 L88.416,40.550 L88.315,40.823 L88.210,41.097 L88.103,41.370 L87.993,41.643 L87.880,41.915 L87.764,42.187 L87.645,42.458 L87.524,42.729 L87.399,43.000 L87.272,43.270 L87.142,43.540 L87.009,43.809 L86.873,44.078 L86.735,44.346 L86.594,44.614 L86.451,44.882 L86.305,45.148 L86.156,45.415 L86.005,45.681 L85.851,45.946 L85.694,46.211 L85.535,46.475 L85.374,46.739 L85.210,47.002 L85.044,47.265 L84.876,47.527 L84.705,47.789 L84.532,48.050 L84.357,48.310 L84.179,48.570 L84.000,48.830 L83.818,49.088 L83.634,49.347 L83.447,49.604 L83.259,49.861 L83.069,50.118 L82.877,50.374 L82.683,50.629 L82.487,50.884 L82.289,51.138 L82.089,51.392 L81.887,51.645 L81.684,51.898 L81.479,52.150 L81.272,52.401 L81.064,52.652 L80.854,52.902 L80.642,53.152 L80.429,53.401 L80.214,53.650 L79.998,53.898 L79.781,54.145 L79.562,54.392 L79.341,54.639 L79.120,54.885 L78.897,55.130 L78.673,55.375 L78.447,55.619 L78.221,55.863 L77.993,56.106 L77.765,56.349 L77.535,56.591 L77.304,56.832 L77.073,57.073 L76.840,57.314 L76.607,57.554 L76.373,57.794 L76.138,58.033 L75.902,58.271 L75.666,58.509 L75.429,58.747 L75.191,58.984 L74.953,59.221 L74.714,59.457 L74.475,59.693 L74.235,59.928 L73.995,60.163 L73.754,60.397 L73.514,60.631 L73.272,60.864 L73.031,61.097 L72.789,61.329 L72.548,61.561 L72.306,61.793 L72.064,62.024 L71.822,62.255 L71.580,62.485 L71.338,62.715 L71.096,62.944 L70.854,63.173 L70.612,63.402 L70.371,63.630 L70.129,63.858 L69.889,64.085 L69.648,64.312 L69.407,64.538 L69.168,64.764 L68.928,64.990 L68.689,65.215 L68.450,65.440 L68.212,65.664 L67.975,65.888 L67.738,66.112 L67.502,66.335 L67.266,66.558 L67.031,66.780 L66.797,67.002 L66.564,67.223 L66.331,67.445 L66.100,67.665 L65.869,67.885 L65.639,68.105 L65.410,68.325 L65.182,68.544 L64.956,68.762 L64.730,68.980 L64.505,69.198 L64.281,69.415 L64.059,69.632 L63.838,69.848 L63.617,70.064 L63.399,70.279 L63.181,70.494 L62.965,70.709 L62.750,70.923 L62.536,71.136 L62.324,71.349 L62.113,71.562 L61.904,71.773 L61.696,71.985 L61.489,72.196 L61.284,72.406 L61.081,72.616 L60.879,72.826 L60.679,73.034 L60.480,73.243 L60.283,73.450 L60.088,73.657 L59.894,73.864 L59.702,74.070 L59.512,74.275 L59.323,74.480 L59.136,74.684 L58.951,74.887 L58.768,75.090 L58.586,75.292 L58.407,75.494 L58.229,75.694 L58.053,75.895 L57.879,76.094 L57.707,76.292 L57.536,76.490 L57.368,76.687 L57.201,76.884 L57.037,77.079 L56.874,77.274 L56.714,77.468 L56.555,77.661 L56.399,77.854 L56.244,78.045 L56.091,78.236 L55.941,78.425 L55.792,78.614 L55.646,78.802 L55.501,78.989 L55.359,79.175 L55.218,79.360 L55.080,79.544 L54.943,79.727 L54.809,79.909 L54.677,80.090 L54.547,80.270 L54.419,80.449 L54.293,80.627 L54.169,80.804 L54.047,80.979 L53.927,81.154 L53.810,81.327 L53.694,81.499 L53.580,81.670 L53.469,81.840 L53.359,82.008 L53.252,82.176 L53.147,82.342 L53.043,82.506 L52.942,82.670 L52.843,82.832 L52.746,82.993 L52.651,83.152 L52.557,83.310 L52.466,83.467 L52.377,83.622 L52.290,83.776 L52.205,83.928 L52.121,84.079 L52.040,84.228 L51.961,84.376 L51.883,84.522 L51.808,84.667 L51.734,84.810 L51.663,84.952 L51.593,85.092 L51.525,85.230 L51.459,85.367 L51.394,85.502 L51.332,85.636 L51.271,85.767 L51.212,85.897 L51.155,86.026 L51.099,86.152 L51.046,86.277 L50.994,86.400 L50.943,86.521 L50.894,86.641 L50.847,86.758 L50.802,86.874 L50.758,86.988 L50.716,87.100 L50.675,87.210 L50.636,87.318 L50.598,87.424 L50.562,87.528 L50.527,87.631 L50.494,87.731 L50.462,87.829 L50.431,87.925 L50.402,88.020 L50.374,88.112 L50.347,88.202 L50.322,88.290 L50.298,88.376 L50.275,88.460 L50.253,88.542 L50.233,88.622 L50.213,88.699 L50.195,88.775 L50.177,88.848 L50.161,88.919 L50.146,88.988 L50.132,89.055 L50.118,89.119 L50.106,89.181 L50.095,89.242 L50.084,89.299 L50.074,89.355 L50.065,89.408 L50.057,89.460 L50.049,89.508 L50.042,89.555 L50.036,89.599 L50.031,89.641 L50.026,89.681 L50.021,89.718 L50.017,89.753 L50.014,89.786 L50.011,89.817 L50.009,89.845 L50.007,89.871 L50.005,89.894 L50.004,89.915 L50.002,89.934 L50.002,89.951 L50.001,89.965 L50.001,89.976 L50.000,89.986 L50.000,89.993 L50.000,89.998 L50.000,90.000 L50.000,90.000 L50.000,89.998 L50.000,89.993 L50.000,89.986 L49.999,89.976 L49.999,89.965 L49.998,89.951 L49.998,89.934 L49.996,89.915 L49.995,89.894 L49.993,89.871 L49.991,89.845 L49.989,89.817 L49.986,89.786 L49.983,89.753 L49.979,89.718 L49.974,89.681 L49.969,89.641 L49.964,89.599 L49.958,89.555 L49.951,89.508 L49.943,89.460 L49.935,89.408 L49.926,89.355 L49.916,89.299 L49.905,89.242 L49.894,89.181 L49.882,89.119 L49.868,89.055 L49.854,88.988 L49.839,88.919 L49.823,88.848 L49.805,88.775 L49.787,88.699 L49.767,88.622 L49.747,88.542 L49.725,88.460 L49.702,88.376 L49.678,88.290 L49.653,88.202 L49.626,88.112 L49.598,88.020 L49.569,87.925 L49.538,87.829 L49.506,87.731 L49.473,87.631 L49.438,87.528 L49.402,87.424 L49.364,87.318 L49.325,87.210 L49.284,87.100 L49.242,86.988 L49.198,86.874 L49.153,86.758 L49.106,86.641 L49.057,86.521 L49.006,86.400 L48.954,86.277 L48.901,86.152 L48.845,86.026 L48.788,85.897 L48.729,85.767 L48.668,85.636 L48.606,85.502 L48.541,85.367 L48.475,85.230 L48.407,85.092 L48.337,84.952 L48.266,84.810 L48.192,84.667 L48.117,84.522 L48.039,84.376 L47.960,84.228 L47.879,84.079 L47.795,83.928 L47.710,83.776 L47.623,83.622 L47.534,83.467 L47.443,83.310 L47.349,83.152 L47.254,82.993 L47.157,82.832 L47.058,82.670 L46.957,82.506 L46.853,82.342 L46.748,82.176 L46.641,82.008 L46.531,81.840 L46.420,81.670 L46.306,81.499 L46.190,81.327 L46.073,81.154 L45.953,80.979 L45.831,80.804 L45.707,80.627 L45.581,80.449 L45.453,80.270 L45.323,80.090 L45.191,79.909 L45.057,79.727 L44.920,79.544 L44.782,79.360 L44.641,79.175 L44.499,78.989 L44.354,78.802 L44.208,78.614 L44.059,78.425 L43.909,78.236 L43.756,78.045 L43.601,77.854 L43.445,77.661 L43.286,77.468 L43.126,77.274 L42.963,77.079 L42.799,76.884 L42.632,76.687 L42.464,76.490 L42.293,76.292 L42.121,76.094 L41.947,75.895 L41.771,75.694 L41.593,75.494 L41.414,75.292 L41.232,75.090 L41.049,74.887 L40.864,74.684 L40.677,74.480 L40.488,74.275 L40.298,74.070 L40.106,73.864 L39.912,73.657 L39.717,73.450 L39.520,73.243 L39.321,73.034 L39.121,72.826 L38.919,72.616 L38.716,72.406 L38.511,72.196 L38.304,71.985 L38.096,71.773 L37.887,71.562 L37.676,71.349 L37.464,71.136 L37.250,70.923 L37.035,70.709 L36.819,70.494 L36.601,70.279 L36.383,70.064 L36.162,69.848 L35.941,69.632 L35.719,69.415 L35.495,69.198 L35.270,68.980 L35.044,68.762 L34.818,68.544 L34.590,68.325 L34.361,68.105 L34.131,67.885 L33.900,67.665 L33.669,67.445 L33.436,67.223 L33.203,67.002 L32.969,66.780 L32.734,66.558 L32.498,66.335 L32.262,66.112 L32.025,65.888 L31.788,65.664 L31.550,65.440 L31.311,65.215 L31.072,64.990 L30.832,64.764 L30.593,64.538 L30.352,64.312 L30.111,64.085 L29.871,63.858 L29.629,63.630 L29.388,63.402 L29.146,63.173 L28.904,62.944 L28.662,62.715 L28.420,62.485 L28.178,62.255 L27.936,62.024 L27.694,61.793 L27.452,61.561 L27.211,61.329 L26.969,61.097 L26.728,60.864 L26.486,60.631 L26.246,60.397 L26.005,60.163 L25.765,59.928 L25.525,59.693 L25.286,59.457 L25.047,59.221 L24.809,58.984 L24.571,58.747 L24.334,58.509 L24.098,58.271 L23.862,58.033 L23.627,57.794 L23.393,57.554 L23.160,57.314 L22.927,57.073 L22.696,56.832 L22.465,56.591 L22.235,56.349 L22.007,56.106 L21.779,55.863 L21.553,55.619 L21.327,55.375 L21.103,55.130 L20.880,54.885 L20.659,54.639 L20.438,54.392 L20.219,54.145 L20.002,53.898 L19.786,53.650 L19.571,53.401 L19.358,53.152 L19.146,52.902 L18.936,52.652 L18.728,52.401 L18.521,52.150 L18.316,51.898 L18.113,51.645 L17.911,51.392 L17.711,51.138 L17.513,50.884 L17.317,50.629 L17.123,50.374 L16.931,50.118 L16.741,49.861 L16.553,49.604 L16.366,49.347 L16.182,49.088 L16.000,48.830 L15.821,48.570 L15.643,48.310 L15.468,48.050 L15.295,47.789 L15.124,47.527 L14.956,47.265 L14.790,47.002 L14.626,46.739 L14.465,46.475 L14.306,46.211 L14.149,45.946 L13.995,45.681 L13.844,45.415 L13.695,45.148 L13.549,44.882 L13.406,44.614 L13.265,44.346 L13.127,44.078 L12.991,43.809 L12.858,43.540 L12.728,43.270 L12.601,43.000 L12.476,42.729 L12.355,42.458 L12.236,42.187 L12.120,41.915 L12.007,41.643 L11.897,41.370 L11.790,41.097 L11.685,40.823 L11.584,40.550 L11.486,40.276 L11.390,40.001 L11.298,39.727 L11.209,39.452 L11.123,39.176 L11.040,38.901 L10.960,38.625 L10.883,38.349 L10.809,38.073 L10.739,37.797 L10.671,37.520 L10.607,37.243 L10.546,36.967 L10.488,36.690 L10.433,36.413 L10.382,36.135 L10.333,35.858 L10.288,35.581 L10.247,35.304 L10.208,35.027 L10.173,34.749 L10.141,34.472 L10.112,34.195 L10.086,33.918 L10.064,33.641 L10.045,33.365 L10.030,33.088 L10.017,32.812 L10.008,32.536 L10.002,32.260 L10.000,31.984 L10.001,31.709 L10.005,31.434 L10.012,31.159 L10.023,30.885 L10.037,30.611 L10.054,30.338 L10.075,30.065 L10.099,29.792 L10.126,29.520 L10.156,29.249 L10.190,28.978 L10.227,28.708 L10.267,28.438 L10.310,28.169 L10.357,27.901 L10.407,27.634 L10.460,27.367 L10.516,27.101 L10.576,26.836 L10.639,26.572 L10.704,26.308 L10.773,26.046 L10.846,25.785 L10.921,25.524 L10.999,25.265 L11.081,25.006 L11.165,24.749 L11.253,24.493 L11.344,24.238 L11.438,23.984 L11.534,23.732 L11.634,23.481 L11.737,23.231 L11.843,22.982 L11.951,22.735 L12.063,22.489 L12.178,22.244 L12.295,22.001 L12.415,21.760 L12.538,21.520 L12.664,21.282 L12.793,21.045 L12.924,20.810 L13.058,20.576 L13.195,20.345 L13.335,20.115 L13.477,19.887 L13.622,19.660 L13.769,19.436 L13.919,19.213 L14.072,18.992 L14.227,18.774 L14.385,18.557 L14.545,18.342 L14.707,18.130 L14.872,17.919 L15.040,17.711 L15.209,17.504 L15.381,17.300 L15.555,17.098 L15.732,16.899 L15.910,16.702 L16.091,16.507 L16.274,16.314 L16.459,16.124 L16.646,15.936 L16.836,15.751 L17.027,15.568 L17.220,15.387 L17.415,15.209 L17.612,15.034 L17.811,14.862 L18.012,14.691 L18.214,14.524 L18.418,14.359 L18.624,14.197 L18.832,14.038 L19.041,13.882 L19.252,13.728 L19.464,13.577 L19.678,13.429 L19.894,13.284 L20.111,13.141 L20.329,13.002 L20.548,12.866 L20.769,12.732 L20.992,12.602 L21.215,12.474 L21.440,12.350 L21.666,12.228 L21.893,12.110 L22.121,11.995 L22.350,11.882 L22.580,11.773 L22.811,11.667 L23.043,11.565 L23.276,11.465 L23.510,11.369 L23.745,11.275 L23.980,11.185 L24.216,11.098 L24.453,11.015 L24.690,10.935 L24.928,10.858 L25.167,10.784 L25.406,10.713 L25.645,10.646 L25.885,10.582 L26.125,10.522 L26.366,10.464 L26.607,10.410 L26.848,10.360 L27.090,10.312 L27.331,10.268 L27.573,10.228 L27.815,10.190 L28.057,10.157 L28.299,10.126 L28.541,10.099 L28.783,10.075 L29.025,10.054 L29.267,10.037 L29.509,10.023 L29.750,10.012 L29.991,10.005 L30.232,10.001 L30.472,10.000 L30.713,10.003 L30.952,10.008 L31.192,10.018 L31.430,10.030 L31.669,10.046 L31.907,10.065 L32.144,10.087 L32.380,10.112 L32.616,10.141 L32.851,10.172 L33.086,10.207 L33.320,10.245 L33.552,10.287 L33.785,10.331 L34.016,10.378 L34.246,10.429 L34.475,10.482 L34.704,10.539 L34.931,10.599 L35.158,10.661 L35.383,10.727 L35.607,10.795 L35.830,10.867 L36.052,10.941 L36.273,11.018 L36.492,11.098 L36.710,11.181 L36.927,11.266 L37.143,11.355 L37.357,11.445 L37.570,11.539 L37.782,11.635 L37.992,11.734 L38.200,11.836 L38.408,11.940 L38.613,12.046 L38.818,12.155 L39.020,12.267 L39.221,12.380 L39.421,12.496 L39.619,12.615 L39.815,12.736 L40.009,12.859 L40.202,12.984 L40.394,13.111 L40.583,13.240 L40.771,13.372 L40.957,13.505 L41.141,13.641 L41.323,13.778 L41.504,13.917 L41.683,14.058 L41.859,14.201 L42.034,14.346 L42.208,14.492 L42.379,14.640 L42.548,14.789 L42.716,14.940 L42.881,15.093 L43.045,15.247 L43.206,15.402 L43.366,15.559 L43.523,15.717 L43.679,15.876 L43.833,16.037 L43.984,16.198 L44.134,16.361 L44.281,16.525 L44.427,16.689 L44.570,16.855 L44.712,17.022 L44.851,17.189 L44.989,17.357 L45.124,17.526 L45.257,17.695 L45.388,17.865 L45.517,18.036 L45.644,18.207 L45.769,18.378 L45.892,18.550 L46.013,18.722 L46.132,18.895 L46.248,19.067 L46.363,19.240 L46.476,19.413 L46.586,19.586 L46.695,19.759 L46.801,19.932 L46.905,20.105 L47.007,20.277 L47.108,20.449 L47.206,20.621 L47.302,20.793 L47.396,20.964 L47.488,21.135 L47.579,21.305 L47.667,21.475 L47.753,21.644 L47.837,21.813 L47.919,21.980 L48.000,22.147 L48.078,22.313 L48.155,22.478 L48.229,22.643 L48.302,22.806 L48.373,22.968 L48.442,23.129 L48.509,23.289 L48.574,23.447 L48.637,23.605 L48.699,23.761 L48.759,23.915 L48.817,24.069 L48.873,24.221 L48.928,24.371 L48.981,24.520 L49.032,24.667 L49.081,24.812 L49.129,24.956 L49.176,25.098 L49.220,25.238 L49.263,25.376 L49.305,25.513 L49.345,25.647 L49.383,25.780 L49.420,25.910 L49.456,26.039 L49.490,26.165 L49.523,26.289 L49.554,26.411 L49.584,26.531 L49.612,26.649 L49.640,26.764 L49.666,26.877 L49.690,26.987 L49.714,27.095 L49.736,27.201 L49.757,27.304 L49.777,27.405 L49.796,27.503 L49.814,27.598 L49.831,27.691 L49.846,27.782 L49.861,27.869 L49.875,27.954 L49.888,28.036 L49.900,28.116 L49.911,28.192 L49.921,28.266 L49.930,28.337 L49.939,28.405 L49.947,28.471 L49.954,28.533 L49.961,28.593 L49.967,28.649 L49.972,28.703 L49.977,28.753 L49.981,28.801 L49.984,28.846 L49.987,28.887 L49.990,28.926 L49.992,28.961 L49.994,28.994 L49.996,29.023 L49.997,29.050 L49.998,29.073 L49.999,29.093 L49.999,29.110 L50.000,29.124 L50.000,29.135 L50.000,29.143 L50.000,29.148 L50.000,29.149 Z" fill="white"/>
      <!-- Прозрачное отверстие -->
      <circle cx="73.0" cy="31.0" r="11.5" fill="black"/>
    </mask>
  </defs>
  <!-- Indigo-600 сердце с маской-отверстием -->
  <rect x="0" y="0" width="100" height="100" fill="#4F46E5" mask="url(#heartMask)"/>
</svg>
