<svg xmlns="http://www.w3.org/2000/svg" width="512" height="512" viewBox="0 0 512 512">
  <defs>
    <style>
      .heart { fill: #6366F1; }
      .accent { fill: #22C55E; }
    </style>
  </defs>
  <g>
    <polygon class="heart" points="256.00,143.90 256.00,143.87 256.00,143.77 256.01,143.60 256.02,143.37 256.03,143.07 256.05,142.71 256.08,142.28 256.13,141.78 256.18,141.22 256.25,140.60 256.33,139.91 256.42,139.17 256.54,138.36 256.67,137.49 256.82,136.56 257.00,135.58 257.19,134.54 257.41,133.45 257.66,132.30 257.93,131.10 258.23,129.85 258.56,128.55 258.92,127.21 259.31,125.82 259.73,124.38 260.18,122.91 260.67,121.39 261.19,119.84 261.75,118.25 262.35,116.63 262.98,114.98 263.65,113.30 264.36,111.59 265.11,109.85 265.90,108.09 266.73,106.32 267.60,104.52 268.51,102.71 269.47,100.88 270.47,99.04 271.51,97.20 272.60,95.35 273.73,93.49 274.90,91.63 276.12,89.77 277.38,87.92 278.69,86.07 280.04,84.23 281.44,82.40 282.88,80.58 284.36,78.78 285.89,77.00 287.47,75.23 289.08,73.49 290.74,71.77 292.44,70.08 294.19,68.42 295.97,66.78 297.80,65.18 299.67,63.62 301.58,62.09 303.52,60.61 305.51,59.16 307.54,57.76 309.60,56.40 311.69,55.09 313.83,53.82 315.99,52.61 318.19,51.45 320.42,50.34 322.69,49.29 324.98,48.30 327.30,47.36 329.65,46.48 332.03,45.67 334.43,44.91 336.85,44.22 339.30,43.59 341.77,43.03 344.26,42.53 346.76,42.10 349.28,41.74 351.82,41.44 354.37,41.22 356.93,41.06 359.50,40.98 362.09,40.96 364.67,41.02 367.27,41.14 369.87,41.34 372.47,41.61 375.07,41.95 377.66,42.37 380.26,42.85 382.85,43.41 385.44,44.03 388.01,44.73 390.58,45.50 393.13,46.34 395.67,47.25 398.20,48.23 400.71,49.28 403.20,50.39 405.66,51.57 408.11,52.82 410.53,54.14 412.93,55.52 415.30,56.96 417.64,58.47 419.95,60.04 422.23,61.67 424.47,63.36 426.68,65.11 428.84,66.92 430.97,68.78 433.06,70.70 435.11,72.67 437.12,74.70 439.07,76.78 440.99,78.90 442.85,81.08 444.66,83.30 446.43,85.57 448.14,87.88 449.80,90.24 451.40,92.64 452.95,95.07 454.44,97.55 455.87,100.06 457.25,102.61 458.56,105.19 459.81,107.81 461.00,110.45 462.13,113.13 463.19,115.83 464.19,118.56 465.13,121.32 465.99,124.10 466.79,126.90 467.53,129.72 468.19,132.56 468.79,135.42 469.31,138.29 469.77,141.18 470.16,144.09 470.47,147.00 470.72,149.93 470.90,152.87 471.00,155.82 471.04,158.77 471.00,161.74 470.90,164.70 470.72,167.67 470.47,170.65 470.16,173.63 469.77,176.60 469.31,179.58 468.79,182.56 468.19,185.54 467.53,188.51 466.79,191.48 465.99,194.45 465.13,197.41 464.19,200.36 463.19,203.31 462.13,206.26 461.00,209.19 459.81,212.12 458.56,215.04 457.25,217.95 455.87,220.86 454.44,223.75 452.95,226.63 451.40,229.50 449.80,232.36 448.14,235.21 446.43,238.05 444.66,240.88 442.85,243.69 440.99,246.49 439.07,249.29 437.12,252.06 435.11,254.83 433.06,257.59 430.97,260.33 428.84,263.06 426.68,265.78 424.47,268.48 422.23,271.18 419.95,273.86 417.64,276.53 415.30,279.19 412.93,281.83 410.53,284.47 408.11,287.09 405.66,289.70 403.20,292.30 400.71,294.89 398.20,297.47 395.67,300.04 393.13,302.59 390.58,305.14 388.01,307.68 385.44,310.20 382.85,312.72 380.26,315.23 377.66,317.72 375.07,320.21 372.47,322.69 369.87,325.16 367.27,327.61 364.67,330.07 362.09,332.51 359.50,334.94 356.93,337.36 354.37,339.78 351.82,342.18 349.28,344.58 346.76,346.97 344.26,349.34 341.77,351.71 339.30,354.08 336.85,356.43 334.43,358.77 332.03,361.10 329.65,363.42 327.30,365.74 324.98,368.04 322.69,370.33 320.42,372.62 318.19,374.89 315.99,377.15 313.83,379.40 311.69,381.63 309.60,383.86 307.54,386.07 305.51,388.27 303.52,390.45 301.58,392.62 299.67,394.78 297.80,396.92 295.97,399.04 294.19,401.15 292.44,403.24 290.74,405.32 289.08,407.37 287.47,409.41 285.89,411.43 284.36,413.43 282.88,415.40 281.44,417.36 280.04,419.29 278.69,421.20 277.38,423.08 276.12,424.95 274.90,426.78 273.73,428.59 272.60,430.37 271.51,432.13 270.47,433.85 269.47,435.55 268.51,437.22 267.60,438.85 266.73,440.46 265.90,442.03 265.11,443.56 264.36,445.07 263.65,446.54 262.98,447.97 262.35,449.36 261.75,450.72 261.19,452.04 260.67,453.32 260.18,454.57 259.73,455.77 259.31,456.93 258.92,458.05 258.56,459.12 258.23,460.16 257.93,461.15 257.66,462.09 257.41,462.99 257.19,463.85 257.00,464.66 256.82,465.42 256.67,466.14 256.54,466.81 256.42,467.43 256.33,468.00 256.25,468.53 256.18,469.00 256.13,469.43 256.08,469.80 256.05,470.13 256.03,470.41 256.02,470.64 256.01,470.81 256.00,470.94 256.00,471.01 256.00,471.04 256.00,471.01 256.00,470.94 255.99,470.81 255.98,470.64 255.97,470.41 255.95,470.13 255.92,469.80 255.87,469.43 255.82,469.00 255.75,468.53 255.67,468.00 255.58,467.43 255.46,466.81 255.33,466.14 255.18,465.42 255.00,464.66 254.81,463.85 254.59,462.99 254.34,462.09 254.07,461.15 253.77,460.16 253.44,459.12 253.08,458.05 252.69,456.93 252.27,455.77 251.82,454.57 251.33,453.32 250.81,452.04 250.25,450.72 249.65,449.36 249.02,447.97 248.35,446.54 247.64,445.07 246.89,443.56 246.10,442.03 245.27,440.46 244.40,438.85 243.49,437.22 242.53,435.55 241.53,433.85 240.49,432.13 239.40,430.37 238.27,428.59 237.10,426.78 235.88,424.95 234.62,423.08 233.31,421.20 231.96,419.29 230.56,417.36 229.12,415.40 227.64,413.43 226.11,411.43 224.53,409.41 222.92,407.37 221.26,405.32 219.56,403.24 217.81,401.15 216.03,399.04 214.20,396.92 212.33,394.78 210.42,392.62 208.48,390.45 206.49,388.27 204.46,386.07 202.40,383.86 200.31,381.63 198.17,379.40 196.01,377.15 193.81,374.89 191.58,372.62 189.31,370.33 187.02,368.04 184.70,365.74 182.35,363.42 179.97,361.10 177.57,358.77 175.15,356.43 172.70,354.08 170.23,351.71 167.74,349.34 165.24,346.97 162.72,344.58 160.18,342.18 157.63,339.78 155.07,337.36 152.50,334.94 149.91,332.51 147.33,330.07 144.73,327.61 142.13,325.16 139.53,322.69 136.93,320.21 134.34,317.72 131.74,315.23 129.15,312.72 126.56,310.20 123.99,307.68 121.42,305.14 118.87,302.59 116.33,300.04 113.80,297.47 111.29,294.89 108.80,292.30 106.34,289.70 103.89,287.09 101.47,284.47 99.07,281.83 96.70,279.19 94.36,276.53 92.05,273.86 89.77,271.18 87.53,268.48 85.32,265.78 83.16,263.06 81.03,260.33 78.94,257.59 76.89,254.83 74.88,252.06 72.93,249.29 71.01,246.49 69.15,243.69 67.34,240.88 65.57,238.05 63.86,235.21 62.20,232.36 60.60,229.50 59.05,226.63 57.56,223.75 56.13,220.86 54.75,217.95 53.44,215.04 52.19,212.12 51.00,209.19 49.87,206.26 48.81,203.31 47.81,200.36 46.87,197.41 46.01,194.45 45.21,191.48 44.47,188.51 43.81,185.54 43.21,182.56 42.69,179.58 42.23,176.60 41.84,173.63 41.53,170.65 41.28,167.67 41.10,164.70 41.00,161.74 40.96,158.77 41.00,155.82 41.10,152.87 41.28,149.93 41.53,147.00 41.84,144.09 42.23,141.18 42.69,138.29 43.21,135.42 43.81,132.56 44.47,129.72 45.21,126.90 46.01,124.10 46.87,121.32 47.81,118.56 48.81,115.83 49.87,113.13 51.00,110.45 52.19,107.81 53.44,105.19 54.75,102.61 56.13,100.06 57.56,97.55 59.05,95.07 60.60,92.64 62.20,90.24 63.86,87.88 65.57,85.57 67.34,83.30 69.15,81.08 71.01,78.90 72.93,76.78 74.88,74.70 76.89,72.67 78.94,70.70 81.03,68.78 83.16,66.92 85.32,65.11 87.53,63.36 89.77,61.67 92.05,60.04 94.36,58.47 96.70,56.96 99.07,55.52 101.47,54.14 103.89,52.82 106.34,51.57 108.80,50.39 111.29,49.28 113.80,48.23 116.33,47.25 118.87,46.34 121.42,45.50 123.99,44.73 126.56,44.03 129.15,43.41 131.74,42.85 134.34,42.37 136.93,41.95 139.53,41.61 142.13,41.34 144.73,41.14 147.33,41.02 149.91,40.96 152.50,40.98 155.07,41.06 157.63,41.22 160.18,41.44 162.72,41.74 165.24,42.10 167.74,42.53 170.23,43.03 172.70,43.59 175.15,44.22 177.57,44.91 179.97,45.67 182.35,46.48 184.70,47.36 187.02,48.30 189.31,49.29 191.58,50.34 193.81,51.45 196.01,52.61 198.17,53.82 200.31,55.09 202.40,56.40 204.46,57.76 206.49,59.16 208.48,60.61 210.42,62.09 212.33,63.62 214.20,65.18 216.03,66.78 217.81,68.42 219.56,70.08 221.26,71.77 222.92,73.49 224.53,75.23 226.11,77.00 227.64,78.78 229.12,80.58 230.56,82.40 231.96,84.23 233.31,86.07 234.62,87.92 235.88,89.77 237.10,91.63 238.27,93.49 239.40,95.35 240.49,97.20 241.53,99.04 242.53,100.88 243.49,102.71 244.40,104.52 245.27,106.32 246.10,108.09 246.89,109.85 247.64,111.59 248.35,113.30 249.02,114.98 249.65,116.63 250.25,118.25 250.81,119.84 251.33,121.39 251.82,122.91 252.27,124.38 252.69,125.82 253.08,127.21 253.44,128.55 253.77,129.85 254.07,131.10 254.34,132.30 254.59,133.45 254.81,134.54 255.00,135.58 255.18,136.56 255.33,137.49 255.46,138.36 255.58,139.17 255.67,139.91 255.75,140.60 255.82,141.22 255.87,141.78 255.92,142.28 255.95,142.71 255.97,143.07 255.98,143.37 255.99,143.60 256.00,143.77 256.00,143.87"/>
    <circle class="accent" cx="376.42" cy="169.98" r="25.60"/>
  </g>
</svg>