<svg xmlns="http://www.w3.org/2000/svg" viewBox="0 0 100 100" aria-hidden="true">
  <rect width="100" height="100" fill="black"/>
  <path d="M50.000,31.756 L50.000,31.754 L50.000,31.750 L50.000,31.743 L50.000,31.734 L50.001,31.722 L50.001,31.707 L50.002,31.689 L50.003,31.669 L50.004,31.645 L50.005,31.620 L50.007,31.591 L50.009,31.560 L50.011,31.526 L50.014,31.490 L50.017,31.451 L50.021,31.409 L50.025,31.365 L50.029,31.318 L50.034,31.269 L50.040,31.217 L50.046,31.162 L50.053,31.105 L50.061,31.045 L50.069,30.983 L50.078,30.918 L50.088,30.851 L50.098,30.782 L50.109,30.710 L50.121,30.636 L50.134,30.559 L50.148,30.480 L50.163,30.399 L50.178,30.315 L50.195,30.229 L50.212,30.141 L50.231,30.051 L50.250,29.958 L50.271,29.864 L50.293,29.767 L50.315,29.668 L50.339,29.568 L50.364,29.465 L50.390,29.360 L50.418,29.253 L50.446,29.145 L50.476,29.034 L50.507,28.922 L50.540,28.807 L50.573,28.691 L50.608,28.574 L50.645,28.454 L50.682,28.333 L50.721,28.211 L50.762,28.086 L50.804,27.961 L50.847,27.833 L50.892,27.705 L50.938,27.574 L50.986,27.443 L51.035,27.310 L51.086,27.176 L51.138,27.041 L51.192,26.904 L51.248,26.766 L51.305,26.628 L51.364,26.488 L51.424,26.347 L51.486,26.205 L51.549,26.062 L51.615,25.919 L51.682,25.774 L51.750,25.629 L51.820,25.483 L51.892,25.336 L51.966,25.189 L52.042,25.041 L52.119,24.892 L52.198,24.743 L52.278,24.594 L52.361,24.444 L52.445,24.294 L52.531,24.143 L52.618,23.993 L52.708,23.842 L52.799,23.690 L52.892,23.539 L52.987,23.388 L53.084,23.236 L53.182,23.085 L53.283,22.934 L53.385,22.783 L53.489,22.632 L53.594,22.481 L53.702,22.331 L53.811,22.181 L53.922,22.031 L54.035,21.882 L54.150,21.733 L54.267,21.585 L54.385,21.437 L54.505,21.290 L54.627,21.144 L54.751,20.998 L54.876,20.853 L55.004,20.709 L55.133,20.566 L55.264,20.424 L55.396,20.282 L55.531,20.142 L55.667,20.002 L55.805,19.864 L55.945,19.727 L56.086,19.591 L56.229,19.456 L56.374,19.323 L56.520,19.191 L56.669,19.060 L56.818,18.930 L56.970,18.802 L57.123,18.676 L57.278,18.551 L57.434,18.427 L57.592,18.306 L57.752,18.185 L57.913,18.067 L58.076,17.950 L58.240,17.835 L58.406,17.722 L58.573,17.611 L58.742,17.501 L58.912,17.394 L59.084,17.288 L59.257,17.184 L59.431,17.083 L59.607,16.983 L59.785,16.886 L59.963,16.790 L60.143,16.697 L60.325,16.606 L60.507,16.518 L60.691,16.431 L60.876,16.347 L61.062,16.265 L61.250,16.185 L61.439,16.108 L61.628,16.033 L61.819,15.961 L62.011,15.891 L62.205,15.823 L62.399,15.758 L62.594,15.696 L62.790,15.636 L62.987,15.579 L63.185,15.524 L63.384,15.472 L63.584,15.422 L63.785,15.375 L63.986,15.331 L64.189,15.290 L64.392,15.251 L64.595,15.215 L64.800,15.181 L65.005,15.151 L65.211,15.123 L65.417,15.098 L65.624,15.076 L65.832,15.057 L66.040,15.040 L66.248,15.026 L66.457,15.015 L66.667,15.007 L66.877,15.002 L67.087,15.000 L67.297,15.001 L67.508,15.004 L67.719,15.011 L67.930,15.020 L68.141,15.032 L68.353,15.047 L68.565,15.065 L68.776,15.086 L68.988,15.110 L69.200,15.137 L69.412,15.167 L69.623,15.199 L69.835,15.235 L70.046,15.273 L70.258,15.315 L70.469,15.359 L70.680,15.406 L70.890,15.456 L71.101,15.509 L71.311,15.565 L71.520,15.624 L71.729,15.686 L71.938,15.750 L72.146,15.818 L72.354,15.888 L72.561,15.961 L72.768,16.037 L72.974,16.116 L73.179,16.197 L73.383,16.282 L73.587,16.369 L73.790,16.459 L73.992,16.552 L74.194,16.647 L74.394,16.745 L74.594,16.846 L74.792,16.950 L74.990,17.056 L75.187,17.165 L75.382,17.276 L75.577,17.391 L75.770,17.507 L75.962,17.627 L76.153,17.749 L76.343,17.873 L76.532,18.000 L76.719,18.130 L76.905,18.262 L77.089,18.396 L77.272,18.533 L77.454,18.673 L77.634,18.814 L77.813,18.959 L77.990,19.105 L78.166,19.254 L78.340,19.405 L78.512,19.558 L78.683,19.714 L78.852,19.872 L79.019,20.032 L79.184,20.194 L79.348,20.358 L79.510,20.525 L79.670,20.693 L79.828,20.864 L79.985,21.037 L80.139,21.211 L80.292,21.388 L80.442,21.566 L80.590,21.747 L80.737,21.929 L80.881,22.113 L81.023,22.299 L81.163,22.487 L81.301,22.677 L81.437,22.868 L81.570,23.061 L81.702,23.256 L81.831,23.453 L81.958,23.651 L82.082,23.850 L82.204,24.052 L82.324,24.254 L82.441,24.459 L82.556,24.664 L82.669,24.871 L82.779,25.080 L82.887,25.290 L82.992,25.501 L83.095,25.714 L83.195,25.928 L83.292,26.143 L83.388,26.359 L83.480,26.577 L83.570,26.795 L83.657,27.015 L83.742,27.236 L83.824,27.458 L83.903,27.681 L83.980,27.906 L84.054,28.131 L84.126,28.357 L84.194,28.584 L84.260,28.812 L84.323,29.040 L84.384,29.270 L84.441,29.500 L84.496,29.732 L84.548,29.963 L84.597,30.196 L84.644,30.429 L84.688,30.663 L84.728,30.898 L84.766,31.133 L84.801,31.369 L84.834,31.606 L84.863,31.843 L84.890,32.080 L84.914,32.318 L84.934,32.557 L84.952,32.795 L84.968,33.035 L84.980,33.274 L84.989,33.514 L84.996,33.755 L84.999,33.995 L85.000,34.236 L84.998,34.477 L84.993,34.719 L84.985,34.960 L84.974,35.202 L84.960,35.444 L84.944,35.686 L84.924,35.928 L84.902,36.171 L84.877,36.413 L84.849,36.656 L84.818,36.898 L84.784,37.141 L84.748,37.383 L84.708,37.626 L84.666,37.869 L84.621,38.111 L84.573,38.353 L84.522,38.596 L84.469,38.838 L84.413,39.080 L84.354,39.322 L84.292,39.564 L84.227,39.806 L84.160,40.047 L84.090,40.288 L84.018,40.529 L83.942,40.770 L83.864,41.011 L83.783,41.251 L83.700,41.491 L83.614,41.731 L83.525,41.971 L83.434,42.210 L83.340,42.449 L83.244,42.687 L83.145,42.925 L83.044,43.163 L82.940,43.401 L82.833,43.638 L82.724,43.875 L82.613,44.111 L82.499,44.347 L82.383,44.583 L82.264,44.818 L82.143,45.053 L82.020,45.287 L81.894,45.521 L81.767,45.755 L81.636,45.988 L81.504,46.221 L81.369,46.453 L81.233,46.685 L81.094,46.916 L80.952,47.147 L80.809,47.377 L80.664,47.607 L80.516,47.836 L80.367,48.065 L80.216,48.294 L80.062,48.521 L79.907,48.749 L79.750,48.976 L79.590,49.202 L79.429,49.428 L79.267,49.654 L79.102,49.879 L78.935,50.103 L78.767,50.327 L78.597,50.551 L78.426,50.774 L78.253,50.996 L78.078,51.218 L77.902,51.440 L77.724,51.661 L77.544,51.881 L77.363,52.101 L77.181,52.321 L76.997,52.540 L76.812,52.758 L76.625,52.976 L76.437,53.194 L76.248,53.411 L76.058,53.627 L75.866,53.843 L75.674,54.059 L75.480,54.274 L75.285,54.489 L75.089,54.703 L74.891,54.917 L74.693,55.130 L74.494,55.343 L74.294,55.555 L74.093,55.767 L73.891,55.978 L73.689,56.189 L73.485,56.400 L73.281,56.610 L73.076,56.819 L72.871,57.029 L72.664,57.237 L72.458,57.446 L72.250,57.654 L72.042,57.861 L71.834,58.068 L71.625,58.275 L71.415,58.481 L71.206,58.687 L70.996,58.892 L70.785,59.097 L70.574,59.302 L70.363,59.506 L70.152,59.710 L69.941,59.913 L69.729,60.116 L69.518,60.319 L69.306,60.521 L69.094,60.723 L68.882,60.924 L68.670,61.126 L68.459,61.326 L68.247,61.527 L68.036,61.727 L67.824,61.926 L67.613,62.126 L67.402,62.324 L67.192,62.523 L66.982,62.721 L66.772,62.919 L66.562,63.116 L66.353,63.313 L66.144,63.510 L65.936,63.706 L65.728,63.902 L65.521,64.098 L65.314,64.293 L65.108,64.488 L64.902,64.683 L64.698,64.877 L64.493,65.071 L64.290,65.264 L64.087,65.457 L63.885,65.650 L63.684,65.842 L63.484,66.034 L63.285,66.226 L63.086,66.417 L62.888,66.608 L62.692,66.798 L62.496,66.988 L62.302,67.178 L62.108,67.367 L61.915,67.556 L61.724,67.744 L61.533,67.932 L61.344,68.120 L61.156,68.307 L60.969,68.494 L60.783,68.680 L60.599,68.866 L60.416,69.052 L60.234,69.237 L60.053,69.421 L59.874,69.606 L59.696,69.789 L59.519,69.972 L59.344,70.155 L59.170,70.337 L58.998,70.519 L58.827,70.700 L58.657,70.881 L58.489,71.061 L58.323,71.241 L58.158,71.420 L57.994,71.599 L57.832,71.777 L57.672,71.954 L57.513,72.131 L57.356,72.307 L57.200,72.483 L57.046,72.658 L56.894,72.832 L56.743,73.006 L56.594,73.179 L56.447,73.352 L56.301,73.523 L56.157,73.694 L56.015,73.865 L55.875,74.035 L55.736,74.204 L55.599,74.372 L55.463,74.539 L55.330,74.706 L55.198,74.872 L55.068,75.037 L54.940,75.202 L54.813,75.365 L54.689,75.528 L54.566,75.690 L54.445,75.851 L54.326,76.011 L54.208,76.171 L54.092,76.329 L53.979,76.486 L53.866,76.643 L53.756,76.799 L53.648,76.953 L53.541,77.107 L53.436,77.260 L53.333,77.411 L53.232,77.562 L53.133,77.711 L53.035,77.860 L52.939,78.007 L52.846,78.154 L52.753,78.299 L52.663,78.443 L52.574,78.586 L52.488,78.728 L52.403,78.869 L52.319,79.008 L52.238,79.146 L52.158,79.283 L52.080,79.419 L52.004,79.554 L51.929,79.687 L51.856,79.819 L51.785,79.950 L51.716,80.079 L51.648,80.207 L51.582,80.334 L51.517,80.459 L51.455,80.583 L51.394,80.706 L51.334,80.827 L51.276,80.946 L51.220,81.065 L51.165,81.181 L51.112,81.297 L51.061,81.410 L51.010,81.523 L50.962,81.633 L50.915,81.742 L50.869,81.850 L50.825,81.956 L50.783,82.061 L50.741,82.163 L50.702,82.265 L50.663,82.364 L50.626,82.462 L50.591,82.558 L50.556,82.653 L50.523,82.746 L50.492,82.837 L50.461,82.927 L50.432,83.014 L50.404,83.100 L50.377,83.185 L50.352,83.267 L50.327,83.348 L50.304,83.427 L50.282,83.504 L50.261,83.579 L50.240,83.653 L50.221,83.724 L50.203,83.794 L50.186,83.862 L50.170,83.928 L50.155,83.992 L50.141,84.054 L50.128,84.114 L50.115,84.173 L50.104,84.229 L50.093,84.284 L50.083,84.336 L50.073,84.387 L50.065,84.436 L50.057,84.482 L50.050,84.527 L50.043,84.570 L50.037,84.611 L50.032,84.649 L50.027,84.686 L50.023,84.721 L50.019,84.754 L50.015,84.784 L50.012,84.813 L50.010,84.840 L50.008,84.864 L50.006,84.887 L50.004,84.907 L50.003,84.926 L50.002,84.942 L50.001,84.957 L50.001,84.969 L50.000,84.979 L50.000,84.988 L50.000,84.994 L50.000,84.998 L50.000,85.000 L50.000,85.000 L50.000,84.998 L50.000,84.994 L50.000,84.988 L50.000,84.979 L49.999,84.969 L49.999,84.957 L49.998,84.942 L49.997,84.926 L49.996,84.907 L49.994,84.887 L49.992,84.864 L49.990,84.840 L49.988,84.813 L49.985,84.784 L49.981,84.754 L49.977,84.721 L49.973,84.686 L49.968,84.649 L49.963,84.611 L49.957,84.570 L49.950,84.527 L49.943,84.482 L49.935,84.436 L49.927,84.387 L49.917,84.336 L49.907,84.284 L49.896,84.229 L49.885,84.173 L49.872,84.114 L49.859,84.054 L49.845,83.992 L49.830,83.928 L49.814,83.862 L49.797,83.794 L49.779,83.724 L49.760,83.653 L49.739,83.579 L49.718,83.504 L49.696,83.427 L49.673,83.348 L49.648,83.267 L49.623,83.185 L49.596,83.100 L49.568,83.014 L49.539,82.927 L49.508,82.837 L49.477,82.746 L49.444,82.653 L49.409,82.558 L49.374,82.462 L49.337,82.364 L49.298,82.265 L49.259,82.163 L49.217,82.061 L49.175,81.956 L49.131,81.850 L49.085,81.742 L49.038,81.633 L48.990,81.523 L48.939,81.410 L48.888,81.297 L48.835,81.181 L48.780,81.065 L48.724,80.946 L48.666,80.827 L48.606,80.706 L48.545,80.583 L48.483,80.459 L48.418,80.334 L48.352,80.207 L48.284,80.079 L48.215,79.950 L48.144,79.819 L48.071,79.687 L47.996,79.554 L47.920,79.419 L47.842,79.283 L47.762,79.146 L47.681,79.008 L47.597,78.869 L47.512,78.728 L47.426,78.586 L47.337,78.443 L47.247,78.299 L47.154,78.154 L47.061,78.007 L46.965,77.860 L46.867,77.711 L46.768,77.562 L46.667,77.411 L46.564,77.260 L46.459,77.107 L46.352,76.953 L46.244,76.799 L46.134,76.643 L46.021,76.486 L45.908,76.329 L45.792,76.171 L45.674,76.011 L45.555,75.851 L45.434,75.690 L45.311,75.528 L45.187,75.365 L45.060,75.202 L44.932,75.037 L44.802,74.872 L44.670,74.706 L44.537,74.539 L44.401,74.372 L44.264,74.204 L44.125,74.035 L43.985,73.865 L43.843,73.694 L43.699,73.523 L43.553,73.352 L43.406,73.179 L43.257,73.006 L43.106,72.832 L42.954,72.658 L42.800,72.483 L42.644,72.307 L42.487,72.131 L42.328,71.954 L42.168,71.777 L42.006,71.599 L41.842,71.420 L41.677,71.241 L41.511,71.061 L41.343,70.881 L41.173,70.700 L41.002,70.519 L40.830,70.337 L40.656,70.155 L40.481,69.972 L40.304,69.789 L40.126,69.606 L39.947,69.421 L39.766,69.237 L39.584,69.052 L39.401,68.866 L39.217,68.680 L39.031,68.494 L38.844,68.307 L38.656,68.120 L38.467,67.932 L38.276,67.744 L38.085,67.556 L37.892,67.367 L37.698,67.178 L37.504,66.988 L37.308,66.798 L37.112,66.608 L36.914,66.417 L36.715,66.226 L36.516,66.034 L36.316,65.842 L36.115,65.650 L35.913,65.457 L35.710,65.264 L35.507,65.071 L35.302,64.877 L35.098,64.683 L34.892,64.488 L34.686,64.293 L34.479,64.098 L34.272,63.902 L34.064,63.706 L33.856,63.510 L33.647,63.313 L33.438,63.116 L33.228,62.919 L33.018,62.721 L32.808,62.523 L32.598,62.324 L32.387,62.126 L32.176,61.926 L31.964,61.727 L31.753,61.527 L31.541,61.326 L31.330,61.126 L31.118,60.924 L30.906,60.723 L30.694,60.521 L30.482,60.319 L30.271,60.116 L30.059,59.913 L29.848,59.710 L29.637,59.506 L29.426,59.302 L29.215,59.097 L29.004,58.892 L28.794,58.687 L28.585,58.481 L28.375,58.275 L28.166,58.068 L27.958,57.861 L27.750,57.654 L27.542,57.446 L27.336,57.237 L27.129,57.029 L26.924,56.819 L26.719,56.610 L26.515,56.400 L26.311,56.189 L26.109,55.978 L25.907,55.767 L25.706,55.555 L25.506,55.343 L25.307,55.130 L25.109,54.917 L24.911,54.703 L24.715,54.489 L24.520,54.274 L24.326,54.059 L24.134,53.843 L23.942,53.627 L23.752,53.411 L23.563,53.194 L23.375,52.976 L23.188,52.758 L23.003,52.540 L22.819,52.321 L22.637,52.101 L22.456,51.881 L22.276,51.661 L22.098,51.440 L21.922,51.218 L21.747,50.996 L21.574,50.774 L21.403,50.551 L21.233,50.327 L21.065,50.103 L20.898,49.879 L20.733,49.654 L20.571,49.428 L20.410,49.202 L20.250,48.976 L20.093,48.749 L19.938,48.521 L19.784,48.294 L19.633,48.065 L19.484,47.836 L19.336,47.607 L19.191,47.377 L19.048,47.147 L18.906,46.916 L18.767,46.685 L18.631,46.453 L18.496,46.221 L18.364,45.988 L18.233,45.755 L18.106,45.521 L17.980,45.287 L17.857,45.053 L17.736,44.818 L17.617,44.583 L17.501,44.347 L17.387,44.111 L17.276,43.875 L17.167,43.638 L17.060,43.401 L16.956,43.163 L16.855,42.925 L16.756,42.687 L16.660,42.449 L16.566,42.210 L16.475,41.971 L16.386,41.731 L16.300,41.491 L16.217,41.251 L16.136,41.011 L16.058,40.770 L15.982,40.529 L15.910,40.288 L15.840,40.047 L15.773,39.806 L15.708,39.564 L15.646,39.322 L15.587,39.080 L15.531,38.838 L15.478,38.596 L15.427,38.353 L15.379,38.111 L15.334,37.869 L15.292,37.626 L15.252,37.383 L15.216,37.141 L15.182,36.898 L15.151,36.656 L15.123,36.413 L15.098,36.171 L15.076,35.928 L15.056,35.686 L15.040,35.444 L15.026,35.202 L15.015,34.960 L15.007,34.719 L15.002,34.477 L15.000,34.236 L15.001,33.995 L15.004,33.755 L15.011,33.514 L15.020,33.274 L15.032,33.035 L15.048,32.795 L15.066,32.557 L15.086,32.318 L15.110,32.080 L15.137,31.843 L15.166,31.606 L15.199,31.369 L15.234,31.133 L15.272,30.898 L15.312,30.663 L15.356,30.429 L15.403,30.196 L15.452,29.963 L15.504,29.732 L15.559,29.500 L15.616,29.270 L15.677,29.040 L15.740,28.812 L15.806,28.584 L15.874,28.357 L15.946,28.131 L16.020,27.906 L16.097,27.681 L16.176,27.458 L16.258,27.236 L16.343,27.015 L16.430,26.795 L16.520,26.577 L16.612,26.359 L16.708,26.143 L16.805,25.928 L16.905,25.714 L17.008,25.501 L17.113,25.290 L17.221,25.080 L17.331,24.871 L17.444,24.664 L17.559,24.459 L17.676,24.254 L17.796,24.052 L17.918,23.850 L18.042,23.651 L18.169,23.453 L18.298,23.256 L18.430,23.061 L18.563,22.868 L18.699,22.677 L18.837,22.487 L18.977,22.299 L19.119,22.113 L19.263,21.929 L19.410,21.747 L19.558,21.566 L19.708,21.388 L19.861,21.211 L20.015,21.037 L20.172,20.864 L20.330,20.693 L20.490,20.525 L20.652,20.358 L20.816,20.194 L20.981,20.032 L21.148,19.872 L21.317,19.714 L21.488,19.558 L21.660,19.405 L21.834,19.254 L22.010,19.105 L22.187,18.959 L22.366,18.814 L22.546,18.673 L22.728,18.533 L22.911,18.396 L23.095,18.262 L23.281,18.130 L23.468,18.000 L23.657,17.873 L23.847,17.749 L24.038,17.627 L24.230,17.507 L24.423,17.391 L24.618,17.276 L24.813,17.165 L25.010,17.056 L25.208,16.950 L25.406,16.846 L25.606,16.745 L25.806,16.647 L26.008,16.552 L26.210,16.459 L26.413,16.369 L26.617,16.282 L26.821,16.197 L27.026,16.116 L27.232,16.037 L27.439,15.961 L27.646,15.888 L27.854,15.818 L28.062,15.750 L28.271,15.686 L28.480,15.624 L28.689,15.565 L28.899,15.509 L29.110,15.456 L29.320,15.406 L29.531,15.359 L29.742,15.315 L29.954,15.273 L30.165,15.235 L30.377,15.199 L30.588,15.167 L30.800,15.137 L31.012,15.110 L31.224,15.086 L31.435,15.065 L31.647,15.047 L31.859,15.032 L32.070,15.020 L32.281,15.011 L32.492,15.004 L32.703,15.001 L32.913,15.000 L33.123,15.002 L33.333,15.007 L33.543,15.015 L33.752,15.026 L33.960,15.040 L34.168,15.057 L34.376,15.076 L34.583,15.098 L34.789,15.123 L34.995,15.151 L35.200,15.181 L35.405,15.215 L35.608,15.251 L35.811,15.290 L36.014,15.331 L36.215,15.375 L36.416,15.422 L36.616,15.472 L36.815,15.524 L37.013,15.579 L37.210,15.636 L37.406,15.696 L37.601,15.758 L37.795,15.823 L37.989,15.891 L38.181,15.961 L38.372,16.033 L38.561,16.108 L38.750,16.185 L38.938,16.265 L39.124,16.347 L39.309,16.431 L39.493,16.518 L39.675,16.606 L39.857,16.697 L40.037,16.790 L40.215,16.886 L40.393,16.983 L40.569,17.083 L40.743,17.184 L40.916,17.288 L41.088,17.394 L41.258,17.501 L41.427,17.611 L41.594,17.722 L41.760,17.835 L41.924,17.950 L42.087,18.067 L42.248,18.185 L42.408,18.306 L42.566,18.427 L42.722,18.551 L42.877,18.676 L43.030,18.802 L43.182,18.930 L43.331,19.060 L43.480,19.191 L43.626,19.323 L43.771,19.456 L43.914,19.591 L44.055,19.727 L44.195,19.864 L44.333,20.002 L44.469,20.142 L44.604,20.282 L44.736,20.424 L44.867,20.566 L44.996,20.709 L45.124,20.853 L45.249,20.998 L45.373,21.144 L45.495,21.290 L45.615,21.437 L45.733,21.585 L45.850,21.733 L45.965,21.882 L46.078,22.031 L46.189,22.181 L46.298,22.331 L46.406,22.481 L46.511,22.632 L46.615,22.783 L46.717,22.934 L46.818,23.085 L46.916,23.236 L47.013,23.388 L47.108,23.539 L47.201,23.690 L47.292,23.842 L47.382,23.993 L47.469,24.143 L47.555,24.294 L47.639,24.444 L47.722,24.594 L47.802,24.743 L47.881,24.892 L47.958,25.041 L48.034,25.189 L48.108,25.336 L48.180,25.483 L48.250,25.629 L48.318,25.774 L48.385,25.919 L48.451,26.062 L48.514,26.205 L48.576,26.347 L48.636,26.488 L48.695,26.628 L48.752,26.766 L48.808,26.904 L48.862,27.041 L48.914,27.176 L48.965,27.310 L49.014,27.443 L49.062,27.574 L49.108,27.705 L49.153,27.833 L49.196,27.961 L49.238,28.086 L49.279,28.211 L49.318,28.333 L49.355,28.454 L49.392,28.574 L49.427,28.691 L49.460,28.807 L49.493,28.922 L49.524,29.034 L49.554,29.145 L49.582,29.253 L49.610,29.360 L49.636,29.465 L49.661,29.568 L49.685,29.668 L49.707,29.767 L49.729,29.864 L49.750,29.958 L49.769,30.051 L49.788,30.141 L49.805,30.229 L49.822,30.315 L49.837,30.399 L49.852,30.480 L49.866,30.559 L49.879,30.636 L49.891,30.710 L49.902,30.782 L49.912,30.851 L49.922,30.918 L49.931,30.983 L49.939,31.045 L49.947,31.105 L49.954,31.162 L49.960,31.217 L49.966,31.269 L49.971,31.318 L49.975,31.365 L49.979,31.409 L49.983,31.451 L49.986,31.490 L49.989,31.526 L49.991,31.560 L49.993,31.591 L49.995,31.620 L49.996,31.645 L49.997,31.669 L49.998,31.689 L49.999,31.707 L49.999,31.722 L50.000,31.734 L50.000,31.743 L50.000,31.750 L50.000,31.754 L50.000,31.756 Z" fill="white"/>
  <circle cx="73.0" cy="31.0" r="11.5" fill="black"/>
</svg>
